<svg xmlns="http://www.w3.org/2000/svg" viewBox="0 0 159.69 159.69"><title>login</title><circle cx="79.85" cy="79.85" r="79.85" style="fill:#3d3d4a"/><path d="M136,65.29c6.33,6.33,12.64,12.67,19,19a2.32,2.32,0,0,1,.66,2.62q-7,25.82-13.85,51.68a2.46,2.46,0,0,1-2,2q-25.86,6.87-51.68,13.84a2.32,2.32,0,0,1-2.61-.67q-18.93-19-38-38a2.21,2.21,0,0,1-.68-2.45q7-26,13.94-52a2.21,2.21,0,0,1,1.81-1.79q26-6.93,52-13.95a2.18,2.18,0,0,1,2.43.74Q126.44,55.83,136,65.29Zm-15.77,50.79,29-29L109.63,76.55C113.19,89.86,116.65,102.85,120.18,116.08ZM77.75,108.4c3.57,13.34,7,26.36,10.56,39.46L117.23,119ZM66.07,64.86c3.45,12.86,6.78,25.3,10.17,38L104,75Zm50.24,50.24L106.36,78,79.23,105.12ZM84.24,147.49l.31-.15c-3.4-12.72-6.81-25.43-10.27-38.33l-22.45,6.06Zm28.69-97.86L68.54,61.53l.06.4,38.3,10.25C108.91,64.65,110.87,57.32,112.93,49.63ZM63.14,67.39l-.42,0L50.86,111.72l22.53-6.08C70,92.83,66.55,80.11,63.14,67.39Zm87.72,23.66-.26-.12-27.93,27.93L139,135.21C143,120.33,146.93,105.69,150.86,91.05Zm-2.4-7.74.11-.32L116.26,50.68c-2,7.61-4,15-6,22.39Zm-28.37,38.16L91.8,149.76l44.63-12Z" transform="translate(-20.15 -20.15)" style="fill:#f0f"/><path d="M134.74,66.5c6.33,6.33,12.64,12.67,19,19a2.32,2.32,0,0,1,.65,2.61q-7,25.83-13.84,51.69a2.46,2.46,0,0,1-2,2q-25.84,6.87-51.68,13.84a2.31,2.31,0,0,1-2.61-.66q-18.93-19-38-38a2.19,2.19,0,0,1-.69-2.44q7-26,13.94-52a2.2,2.2,0,0,1,1.82-1.78q26-6.93,52-13.95a2.18,2.18,0,0,1,2.43.74Q125.23,57,134.74,66.5ZM119,117.29l29-29L108.43,77.75C112,91.07,115.44,104.06,119,117.29Zm-42.44-7.68C80.11,123,83.6,136,87.11,149.07L116,120.16ZM64.86,66.06C68.31,78.93,71.64,91.37,75,104l27.79-27.78ZM115.1,116.3l-9.95-37.1L78,106.33ZM83,148.69l.32-.14L73.07,110.22l-22.45,6.06Zm28.69-97.85L67.33,62.74l.07.4,38.29,10.25C107.71,65.85,109.66,58.53,111.72,50.84ZM61.93,68.6l-.42,0C57.58,83.3,53.65,98,49.65,112.93l22.53-6.08C68.75,94,65.34,81.32,61.93,68.6Zm87.72,23.66-.26-.12-27.93,27.93,16.35,16.35C141.8,121.53,145.73,106.9,149.65,92.26Zm-2.4-7.74.11-.32L115.05,51.89l-6,22.39Zm-28.36,38.16L90.59,151l44.63-12Z" transform="translate(-20.15 -20.15)" style="fill:aqua"/><path d="M134.74,65.29c6.33,6.33,12.64,12.67,19,19a2.33,2.33,0,0,1,.65,2.62q-7,25.82-13.84,51.68a2.49,2.49,0,0,1-2,2q-25.84,6.87-51.68,13.84a2.32,2.32,0,0,1-2.61-.67q-18.93-19-38-38a2.2,2.2,0,0,1-.69-2.45q7-26,13.94-52a2.21,2.21,0,0,1,1.82-1.79q26-6.93,52-13.95a2.18,2.18,0,0,1,2.43.74Q125.23,55.83,134.74,65.29ZM119,116.08l29-29L108.43,76.55C112,89.86,115.44,102.85,119,116.08ZM76.54,108.4c3.57,13.34,7.06,26.36,10.57,39.46L116,119ZM64.86,64.86c3.45,12.86,6.78,25.3,10.17,38L102.82,75ZM115.1,115.1,105.15,78,78,105.12ZM83,147.49l.32-.15L73.07,109l-22.45,6.06Zm28.69-97.86L67.33,61.53l.07.4,38.29,10.25C107.71,64.65,109.66,57.32,111.72,49.63ZM61.93,67.39l-.42,0L49.65,111.72l22.53-6.08C68.75,92.83,65.34,80.11,61.93,67.39Zm87.72,23.66-.26-.12-27.93,27.93,16.35,16.35C141.8,120.33,145.73,105.69,149.65,91.05Zm-2.4-7.74.11-.32L115.05,50.68l-6,22.39Zm-28.36,38.16-28.3,28.29,44.63-12Z" transform="translate(-20.15 -20.15)" style="fill:#fff"/></svg>