<svg xmlns="http://www.w3.org/2000/svg" viewBox="0 0 224.84 195.96"><title>logo</title><polygon points="86.63 51.1 163.36 8.92 165.73 100.5 86.63 51.1" style="fill:#46bdf9"/><polyline points="59.95 189.92 87.23 141.42 165.73 192.04 59.95 189.92" style="fill:#2699fb"/><polygon points="57.3 6.47 86.93 54.43 8.12 98.69 57.3 6.47" style="fill:#3ee5e5"/><path d="M125.05,26.23c17.84,0,35.68.05,53.52-.06,2.35,0,3.49.82,4.61,2.77q26.58,46.25,53.35,92.38a4.93,4.93,0,0,1,0,5.7q-26.78,46.13-53.35,92.37a4.61,4.61,0,0,1-4.61,2.74q-53.53-.13-107.07,0A4.39,4.39,0,0,1,67,219.64q-26.75-46.54-53.67-93a4.37,4.37,0,0,1,0-5.06q26.91-46.45,53.67-93c1.1-1.92,2.38-2.39,4.45-2.38C89.37,26.26,107.21,26.23,125.05,26.23Zm49.37,93.83V38.38L103.81,79.2Zm-70.65,49,70.53,40.74V128.28ZM25.91,124.14,93.75,163.3V85Zm141.66,0L101.24,85.86v76.49ZM168,215l.23-.65L99.75,174.82C92,188.25,84.46,201.4,76.64,215ZM70.51,36.61,24.71,116l.65.47L93.8,76.9ZM25.36,131.84l-.57.62C40,158.69,55.1,184.93,70.54,211.66c7.94-13.81,15.48-26.92,23.2-40.33Zm157-90.31-.53.2v78.75H228ZM168.09,34l-.29-.62H76.68l23.13,40Zm13.8,93.78v79.78L228,127.79Z" transform="translate(-12.58 -26.17)" style="fill:#121a24"/></svg>