<svg xmlns="http://www.w3.org/2000/svg" viewBox="0 0 42.47 32.13"><title>logoDark</title><polygon points="22.32 9.72 33.51 3.57 33.85 16.92 22.32 9.72" style="fill:#46bdf9"/><polyline points="18.43 29.96 22.41 22.89 33.85 30.27 18.43 29.96" style="fill:#2699fb"/><polygon points="18.04 3.21 22.36 10.21 10.87 16.66 18.04 3.21" style="fill:#3ee5e5"/><path d="M38.08,6.09c2.61,0,5.21,0,7.81,0a.67.67,0,0,1,.67.41Q50.43,13.23,54.34,20a.71.71,0,0,1,0,.83q-3.9,6.72-7.78,13.47a.65.65,0,0,1-.67.39H30.27a.63.63,0,0,1-.64-.36q-3.9-6.78-7.83-13.56a.63.63,0,0,1,0-.74q3.92-6.76,7.82-13.56a.62.62,0,0,1,.65-.34Zm7.2,13.68V7.86L35,13.81ZM35,26.92l10.29,5.94V21ZM23.63,20.37l9.89,5.71V14.65Zm20.65,0-9.67-5.58V25.94Zm.07,13.25,0-.1-10-5.76L31,33.62ZM30.13,7.6,23.45,19.18l.1.06,10-5.76ZM23.55,21.49l-.08.09,6.67,11.55,3.38-5.88ZM46.44,8.32l-.07,0V19.83h6.72ZM44.36,7.23l0-.09H31L34.41,13Zm2,13.67V32.53L53.09,20.9Z" transform="translate(-12 -3.81)" style="fill:#fff"/><rect width="4" height="32.13" style="fill:#fff"/></svg>